<svg width="486" height="486" viewBox="0 0 486 486" fill="none" xmlns="http://www.w3.org/2000/svg">
<path fill-rule="evenodd" clip-rule="evenodd" d="M123.014 361.253C145.305 329.345 190.668 307.502 243.003 307.502C295.337 307.502 340.702 329.345 362.992 361.253C340.702 393.158 295.337 415 243.003 415C190.668 415 145.305 393.158 123.014 361.253Z" fill="url(#paint0_radial_240_14)"/>
<path d="M122.205 124.179C144.482 92.6111 189.816 71 242.118 71C294.419 71 339.755 92.6111 362.031 124.179C339.755 155.746 294.419 177.357 242.118 177.357C189.816 177.357 144.482 155.746 122.205 124.179Z" fill="url(#paint1_radial_240_14)"/>
<path d="M244.408 243.628C211.998 274.932 168.039 292.518 122.204 292.518C76.3687 292.518 32.4105 274.932 0 243.628L122.204 124.178L244.408 243.628Z" fill="url(#paint2_radial_240_14)"/>
<path d="M484.526 243.686C452.115 274.99 408.155 292.577 362.322 292.577C316.487 292.577 272.528 274.99 240.117 243.686L362.322 124.178L484.526 243.686Z" fill="url(#paint3_radial_240_14)"/>
<defs>
<radialGradient id="paint0_radial_240_14" cx="0" cy="0" r="1" gradientUnits="userSpaceOnUse" gradientTransform="translate(243.003 361.25) rotate(92.849) scale(34.7284 77.4121)">
<stop stop-color="#845CE7"/>
<stop offset="1" stop-color="#AF73D8"/>
</radialGradient>
<radialGradient id="paint1_radial_240_14" cx="0" cy="0" r="1" gradientUnits="userSpaceOnUse" gradientTransform="translate(242.263 181.789) rotate(92.7908) scale(71.5794 156.306)">
<stop stop-color="#845CE7"/>
<stop offset="1" stop-color="#AF73D8"/>
</radialGradient>
<radialGradient id="paint2_radial_240_14" cx="0" cy="0" r="1" gradientUnits="userSpaceOnUse" gradientTransform="translate(242.262 181.788) rotate(92.7908) scale(71.5794 156.306)">
<stop stop-color="#845CE7"/>
<stop offset="1" stop-color="#AF73D8"/>
</radialGradient>
<radialGradient id="paint3_radial_240_14" cx="0" cy="0" r="1" gradientUnits="userSpaceOnUse" gradientTransform="translate(242.263 181.788) rotate(92.7908) scale(71.5794 156.306)">
<stop stop-color="#845CE7"/>
<stop offset="1" stop-color="#AF73D8"/>
</radialGradient>
</defs>
</svg>
